<svg width="44" height="44" viewBox="0 0 44 44" fill="none" xmlns="http://www.w3.org/2000/svg">
<path d="M16.4471 1H30.7928C32.2871 1 33.6319 1.675 34.5359 2.73573M35.7127 12.9651V38.0801C35.7127 40.7861 33.4988 43 30.7928 43H5.91989C3.21395 43 1 40.7861 1 38.0801V16.2739" stroke="#001A34" stroke-width="2" stroke-miterlimit="22.9256" stroke-linecap="round" stroke-linejoin="round"/>
<path fill-rule="evenodd" clip-rule="evenodd" d="M11.3534 16.2733H1L16.2733 1V11.3534C16.2733 14.0593 14.0593 16.2733 11.3534 16.2733Z" stroke="#001A34" stroke-width="2" stroke-miterlimit="22.9256" stroke-linecap="round" stroke-linejoin="round"/>
<path d="M27.4683 36.7949H9.24438" stroke="#001A34" stroke-width="2" stroke-miterlimit="22.9256" stroke-linecap="round" stroke-linejoin="round"/>
<path d="M27.4683 30.8912H9.24438" stroke="#001A34" stroke-width="2" stroke-miterlimit="22.9256" stroke-linecap="round" stroke-linejoin="round"/>
<path d="M33.5402 3.95324L39.1343 9.5473L24.6831 23.9985L19.089 18.4044L33.5402 3.95324Z" stroke="#FF8562" stroke-width="2" stroke-miterlimit="22.9256" stroke-linecap="round" stroke-linejoin="round"/>
<path fill-rule="evenodd" clip-rule="evenodd" d="M39.1343 9.54812L33.54 3.95388L35.9488 1.54512C36.6756 0.818292 37.8636 0.818292 38.5905 1.54512L41.543 4.49769C42.2699 5.22452 42.2699 6.41254 41.543 7.13937L39.1343 9.54812Z" stroke="#FF8562" stroke-width="2" stroke-miterlimit="22.9256" stroke-linecap="round" stroke-linejoin="round"/>
<path d="M19.0926 18.4014L16.8203 26.2679L24.6869 23.9956" stroke="#FF8562" stroke-width="2" stroke-miterlimit="22.9256" stroke-linecap="round" stroke-linejoin="round"/>
</svg>
