<svg width="44" height="44" viewBox="0 0 44 44" fill="none" xmlns="http://www.w3.org/2000/svg">
<path d="M11.828 3H3.858C3.38414 3 3 3.38414 3 3.858V11.828C3 12.3018 3.38414 12.686 3.858 12.686H11.828C12.3018 12.686 12.686 12.3018 12.686 11.828V3.858C12.686 3.38414 12.3018 3 11.828 3Z" stroke="#001A34" stroke-width="2" stroke-miterlimit="22.9256" stroke-linecap="round" stroke-linejoin="round"/>
<path d="M19.059 5.70758H41.0035" stroke="#001A34" stroke-width="2" stroke-miterlimit="22.9256" stroke-linecap="round" stroke-linejoin="round"/>
<path d="M19.059 9.97845H31.8306" stroke="#001A34" stroke-width="2" stroke-miterlimit="22.9256" stroke-linecap="round" stroke-linejoin="round"/>
<path d="M11.828 31.3141H3.858C3.38414 31.3141 3 31.6983 3 32.1721V40.1421C3 40.616 3.38414 41.0001 3.858 41.0001H11.828C12.3018 41.0001 12.686 40.616 12.686 40.1421V32.1721C12.686 31.6983 12.3018 31.3141 11.828 31.3141Z" stroke="#001A34" stroke-width="2" stroke-miterlimit="22.9256" stroke-linecap="round" stroke-linejoin="round"/>
<path d="M19.059 34.0217H41.0035" stroke="#001A34" stroke-width="2" stroke-miterlimit="22.9256" stroke-linecap="round" stroke-linejoin="round"/>
<path d="M19.059 38.2925H31.8306" stroke="#001A34" stroke-width="2" stroke-miterlimit="22.9256" stroke-linecap="round" stroke-linejoin="round"/>
<path d="M11.828 17.157H3.858C3.38414 17.157 3 17.5412 3 18.015V25.985C3 26.4589 3.38414 26.843 3.858 26.843H11.828C12.3018 26.843 12.686 26.4589 12.686 25.985V18.015C12.686 17.5412 12.3018 17.157 11.828 17.157Z" stroke="#FF8562" stroke-width="2" stroke-miterlimit="22.9256" stroke-linecap="round" stroke-linejoin="round"/>
<path d="M19.059 19.8647H41.0035" stroke="#FF8562" stroke-width="2" stroke-miterlimit="22.9256" stroke-linecap="round" stroke-linejoin="round"/>
<path d="M19.059 24.1354H31.8306" stroke="#FF8562" stroke-width="2" stroke-miterlimit="22.9256" stroke-linecap="round" stroke-linejoin="round"/>
<path d="M11.0803 20.4793L7.29681 23.9602L4.87524 22.1441" stroke="#FF8562" stroke-width="2" stroke-miterlimit="22.9256" stroke-linecap="round" stroke-linejoin="round"/>
</svg>
