<svg width="44" height="44" viewBox="0 0 44 44" fill="none" xmlns="http://www.w3.org/2000/svg">
<path d="M37.2503 1H6.94072C6.42117 1 6 1.47382 6 2.05831V4.42171C6 5.00619 6.42117 5.48001 6.94072 5.48001H37.2503C37.7699 5.48001 38.191 5.00619 38.191 4.42171V2.05831C38.191 1.47382 37.7699 1 37.2503 1Z" stroke="#001A34" stroke-width="2" stroke-miterlimit="22.9256"/>
<path d="M34.209 5.57306V10.4234C34.209 16.7842 28.7573 21.9905 22.0963 21.9905H22.0957C15.4348 21.9905 9.98303 16.7855 9.98303 10.4234V5.57306" stroke="#001A34" stroke-width="2" stroke-miterlimit="22.9256"/>
<path d="M37.2503 38.52H6.94072C6.42117 38.52 6 38.9938 6 39.5783V41.9417C6 42.5262 6.42117 43 6.94072 43H37.2503C37.7699 43 38.191 42.5262 38.191 41.9417V39.5783C38.191 38.9938 37.7699 38.52 37.2503 38.52Z" stroke="#001A34" stroke-width="2" stroke-miterlimit="22.9256"/>
<path d="M34.209 38.4268V33.5765C34.209 27.2156 28.7573 22.0094 22.0963 22.0094H22.0957C15.4348 22.0094 9.98303 27.2144 9.98303 33.5765V38.4268" stroke="#001A34" stroke-width="2" stroke-miterlimit="22.9256"/>
<path d="M30 11.5002C30 15.0901 26.4183 18.0002 22 18.0002C17.5817 18.0002 14 15.0901 14 11.5002C18.5 11.5001 17.5817 11.5002 22 11.5002C26.4183 11.5002 26 11.5002 30 11.5002Z" stroke="#FF8562" stroke-width="2" stroke-linecap="round" stroke-linejoin="round"/>
<path d="M30 35.0002C30 31.4104 26.4183 28.5002 22 28.5002C17.5817 28.5002 14 31.4104 14 35.0002C18.5 35.0003 17.5817 35.0002 22 35.0002C26.4183 35.0002 26 35.0002 30 35.0002Z" stroke="#FF8562" stroke-width="2" stroke-linecap="round" stroke-linejoin="round"/>
<path d="M22 25V25.5" stroke="#FF8562" stroke-width="2" stroke-linecap="round" stroke-linejoin="round"/>
</svg>
