<svg width="44" height="44" viewBox="0 0 44 44" fill="none" xmlns="http://www.w3.org/2000/svg">
<path fill-rule="evenodd" clip-rule="evenodd" d="M22 18.936C25.9169 18.936 29.0787 22.0978 29.0787 26.0146C29.0787 29.9315 25.9169 33.0933 22 33.0933C18.0832 33.0933 14.9214 29.9315 14.9214 26.0146C14.9214 22.0978 18.0832 18.936 22 18.936Z" stroke="#FF8562" stroke-width="2" stroke-linecap="round" stroke-linejoin="round"/>
<path d="M6.7102 12.8247C6.7102 15.9629 4.16188 18.5112 1.02368 18.5112" stroke="#FF8562" stroke-width="2" stroke-linecap="round" stroke-linejoin="round"/>
<path d="M37.2664 12.8954C37.2664 16.0336 39.8147 18.5819 42.9529 18.5819" stroke="#FF8562" stroke-width="2" stroke-linecap="round" stroke-linejoin="round"/>
<path d="M37.2664 39.0865C37.2664 35.9483 39.8147 33.4 42.9529 33.4" stroke="#FF8562" stroke-width="2" stroke-linecap="round" stroke-linejoin="round"/>
<path d="M6.73376 39.0865C6.73376 35.9483 4.18544 33.4 1.04724 33.4" stroke="#FF8562" stroke-width="2" stroke-linecap="round" stroke-linejoin="round"/>
<path d="M1 22.9943V14.264C1 13.391 1.70787 12.6831 2.5809 12.6831H41.4191C42.2921 12.6831 43 13.391 43 14.264V37.6C43 38.473 42.2921 39.1809 41.4191 39.1809H2.5809C1.70787 39.1809 1 38.473 1 37.6V14.264C1 13.391 1.70787 12.6831 2.5809 12.6831H41.4191C42.2921 12.6831 43 13.391 43 14.264V22.9943" stroke="#001A34" stroke-width="2" stroke-linecap="round" stroke-linejoin="round"/>
<path d="M3.59546 11.4798V9.45061C3.59546 8.69555 4.20894 8.05847 4.964 8.05847H38.9651C39.7438 8.05847 40.3573 8.69555 40.3573 9.45061V11.645" stroke="#001A34" stroke-width="2" stroke-linecap="round" stroke-linejoin="round"/>
<path d="M6.1438 6.85506V5.17978C6.1438 4.5191 6.6629 4 7.32357 4H36.6292C37.2899 4 37.809 4.5191 37.809 5.17978V6.66629" stroke="#001A34" stroke-width="2" stroke-linecap="round" stroke-linejoin="round"/>
</svg>
