<svg width="47" height="44" viewBox="0 0 47 44" fill="none" xmlns="http://www.w3.org/2000/svg">
<path d="M8.19945 26.563L4.78737 23.1509C-0.262456 18.1011 -0.262456 9.83779 4.78737 4.78797V4.78764C9.83719 -0.262181 18.1005 -0.262181 23.1503 4.78764" stroke="#FF8562" stroke-width="2" stroke-miterlimit="22.9256" stroke-linecap="round" stroke-linejoin="round"/>
<path d="M41.6536 23.2909C42.8894 24.5268 42.8745 26.5671 41.6204 27.8212C40.3663 29.0753 38.3264 29.0915 37.0895 27.8547M37.0895 27.8547L32.6353 23.4004M37.0895 27.8547C38.3254 29.0905 38.3105 31.1308 37.0564 32.3852C35.8023 33.6393 33.7624 33.6556 32.5255 32.4187M28.0716 27.9644L32.5255 32.4187M32.5255 32.4187C33.7617 33.6546 33.7468 35.6948 32.4927 36.9489C31.2386 38.203 29.1986 38.2192 27.9618 36.9827" stroke="#FF8562" stroke-width="2" stroke-miterlimit="22.9256" stroke-linecap="round" stroke-linejoin="round"/>
<path fill-rule="evenodd" clip-rule="evenodd" d="M21.7978 6.47421L23.4846 4.78737C28.5344 -0.262456 36.7973 -0.262456 41.8472 4.78737L41.8475 4.78769C46.8973 9.83751 46.8973 18.1008 41.8475 23.1507L29.9848 11.2876L24.1239 16.9277C22.3346 18.6496 19.4915 18.6851 17.7341 16.9277C15.9767 15.1702 15.9767 12.2953 17.7341 10.5378L21.7978 6.47421Z" stroke="#001A34" stroke-width="2" stroke-miterlimit="22.9256" stroke-linecap="round" stroke-linejoin="round"/>
<path fill-rule="evenodd" clip-rule="evenodd" d="M27.41 36.3079L27.4103 36.3083C28.5577 37.4556 28.5573 39.3324 27.41 40.4797L25.7501 42.1397C24.6031 43.2867 22.7259 43.287 21.5786 42.1397C20.4313 40.9924 20.4313 39.1152 21.5786 37.9679L23.2383 36.3079C24.3856 35.1606 26.2627 35.1606 27.41 36.3079V36.3079Z" stroke="#001A34" stroke-width="2" stroke-miterlimit="22.9256" stroke-linecap="round" stroke-linejoin="round"/>
<path fill-rule="evenodd" clip-rule="evenodd" d="M23.2378 32.1358V32.1361C24.3852 33.2831 24.3852 35.1606 23.2378 36.3076L21.5782 37.9676C20.4309 39.1149 18.5538 39.1149 17.4065 37.9676L17.4061 37.9672C16.2588 36.8199 16.2588 34.9428 17.4061 33.7958L19.0661 32.1358C20.2134 30.9885 22.0905 30.9885 23.2378 32.1358Z" stroke="#001A34" stroke-width="2" stroke-miterlimit="22.9256" stroke-linecap="round" stroke-linejoin="round"/>
<path fill-rule="evenodd" clip-rule="evenodd" d="M19.0658 27.9638L19.0661 27.9641C20.2134 29.1114 20.2131 30.9882 19.0658 32.1355L17.4062 33.7955C16.2589 34.9428 14.3817 34.9428 13.2344 33.7958V33.7955C12.0871 32.6482 12.0868 30.7707 13.2341 29.6234L14.894 27.9638C16.0414 26.8165 17.9185 26.8165 19.0658 27.9638Z" stroke="#001A34" stroke-width="2" stroke-miterlimit="22.9256" stroke-linecap="round" stroke-linejoin="round"/>
<path fill-rule="evenodd" clip-rule="evenodd" d="M14.8937 23.7916L14.894 23.792C16.0413 24.9393 16.0413 26.8164 14.894 27.9637L13.234 29.6233C12.0867 30.7706 10.2096 30.7706 9.06226 29.6233C7.91495 28.476 7.91495 26.5989 9.06226 25.4515L10.7219 23.7916C11.8692 22.6443 13.7464 22.6443 14.8937 23.7916V23.7916Z" stroke="#001A34" stroke-width="2" stroke-miterlimit="22.9256" stroke-linecap="round" stroke-linejoin="round"/>
</svg>
