<svg width="36" height="44" viewBox="0 0 36 44" fill="none" xmlns="http://www.w3.org/2000/svg">
<path fill-rule="evenodd" clip-rule="evenodd" d="M17.8035 1C17.0406 1 16.4673 1.7979 15.9313 2.32935C12.2656 5.9645 9.12311 8.44143 2.8133 8.47594C1.2085 8.48465 1 9.05679 1 10.3902V19.3825C1 29.1503 12.6446 43 17.7129 43C22.7813 43 34.5231 29.1506 34.5231 19.3825V10.3902C34.5231 9.05679 34.3146 8.48465 32.7098 8.47594C26.3999 8.44143 23.2575 5.96434 19.5918 2.32935C19.0559 1.7979 18.5664 1 17.8035 1V1Z" stroke="#001A34" stroke-width="2" stroke-miterlimit="22.9256" stroke-linecap="round" stroke-linejoin="round"/>
<path d="M18.025 30.05C22.4571 30.05 26.05 26.4571 26.05 22.025C26.05 17.5929 22.4571 14 18.025 14C13.5929 14 10 17.5929 10 22.025C10 26.4571 13.5929 30.05 18.025 30.05Z" stroke="#FF8562" stroke-width="2" stroke-miterlimit="22.9256" stroke-linecap="round" stroke-linejoin="round"/>
<path d="M18.025 23.9622C19.7824 23.9622 21.2071 22.5375 21.2071 20.78C21.2071 19.0226 19.7824 17.5979 18.025 17.5979C16.2675 17.5979 14.8428 19.0226 14.8428 20.78C14.8428 22.5375 16.2675 23.9622 18.025 23.9622Z" stroke="#FF8562" stroke-width="2" stroke-miterlimit="22.9256" stroke-linecap="round" stroke-linejoin="round"/>
<path d="M13.6162 28.7584C13.8243 26.513 15.7276 24.7399 18.025 24.7399C20.3224 24.7399 22.2257 26.513 22.4338 28.7584" stroke="#FF8562" stroke-width="2" stroke-miterlimit="22.9256" stroke-linecap="round" stroke-linejoin="round"/>
</svg>
