<svg width="39" height="49" viewBox="0 0 39 49" fill="none" xmlns="http://www.w3.org/2000/svg">
<path d="M19.5 47.8424C29.7173 47.8424 38 39.5597 38 29.3424C38 19.1252 29.7173 10.8424 19.5 10.8424C9.28273 10.8424 1 19.1252 1 29.3424C1 39.5597 9.28273 47.8424 19.5 47.8424Z" stroke="#001A34" stroke-width="2" stroke-miterlimit="22.9256" stroke-linecap="round" stroke-linejoin="round"/>
<path d="M9.80687 20.3809C10.3269 20.3809 10.7485 19.9593 10.7485 19.4392C10.7485 18.9192 10.3269 18.4976 9.80687 18.4976C9.28682 18.4976 8.86523 18.9192 8.86523 19.4392C8.86523 19.9593 9.28682 20.3809 9.80687 20.3809Z" stroke="#001A34" stroke-width="2" stroke-miterlimit="22.9256" stroke-linecap="round" stroke-linejoin="round"/>
<path d="M5.67894 30.3414C6.19899 30.3414 6.62058 29.9198 6.62058 29.3997C6.62058 28.8797 6.19899 28.4581 5.67894 28.4581C5.15889 28.4581 4.7373 28.8797 4.7373 29.3997C4.7373 29.9198 5.15889 30.3414 5.67894 30.3414Z" stroke="#001A34" stroke-width="2" stroke-miterlimit="22.9256" stroke-linecap="round" stroke-linejoin="round"/>
<path d="M9.7495 40.2412C10.2696 40.2412 10.6911 39.8196 10.6911 39.2995C10.6911 38.7795 10.2696 38.3579 9.7495 38.3579C9.22945 38.3579 8.80786 38.7795 8.80786 39.2995C8.80786 39.8196 9.22945 40.2412 9.7495 40.2412Z" stroke="#001A34" stroke-width="2" stroke-miterlimit="22.9256" stroke-linecap="round" stroke-linejoin="round"/>
<path d="M19.7065 44.3625C20.2266 44.3625 20.6482 43.9409 20.6482 43.4208C20.6482 42.9008 20.2266 42.4792 19.7065 42.4792C19.1865 42.4792 18.7649 42.9008 18.7649 43.4208C18.7649 43.9409 19.1865 44.3625 19.7065 44.3625Z" stroke="#001A34" stroke-width="2" stroke-miterlimit="22.9256" stroke-linecap="round" stroke-linejoin="round"/>
<path d="M29.6638 40.2885C30.1839 40.2885 30.6054 39.8669 30.6054 39.3469C30.6054 38.8268 30.1839 38.4052 29.6638 38.4052C29.1438 38.4052 28.7222 38.8268 28.7222 39.3469C28.7222 39.8669 29.1438 40.2885 29.6638 40.2885Z" stroke="#001A34" stroke-width="2" stroke-miterlimit="22.9256" stroke-linecap="round" stroke-linejoin="round"/>
<path d="M21.8116 1H17.1881C16.871 1 16.614 1.25702 16.614 1.57406V5.40783C16.614 5.72488 16.871 5.98189 17.1881 5.98189H21.8116C22.1287 5.98189 22.3857 5.72488 22.3857 5.40783V1.57406C22.3857 1.25702 22.1287 1 21.8116 1Z" stroke="#001A34" stroke-width="2" stroke-miterlimit="22.9256" stroke-linecap="round" stroke-linejoin="round"/>
<path d="M19.5 5.8605V10.9032" stroke="#001A34" stroke-width="2" stroke-miterlimit="22.9256" stroke-linecap="round" stroke-linejoin="round"/>
<path d="M5.67406 16.8416L2.8298 13.9973C2.62021 13.7877 2.62021 13.4448 2.8298 13.2352L5.89863 10.1664C6.10822 9.95678 6.45111 9.95689 6.6607 10.1664L9.92058 13.4262" stroke="#001A34" stroke-width="2" stroke-miterlimit="22.9256" stroke-linecap="round" stroke-linejoin="round"/>
<path d="M33.3259 16.8416L36.1701 13.9973C36.3797 13.7877 36.3797 13.4448 36.1701 13.2352L33.1013 10.1664C32.8917 9.95678 32.5488 9.95689 32.3392 10.1664L29.0793 13.4262" stroke="#001A34" stroke-width="2" stroke-miterlimit="22.9256" stroke-linecap="round" stroke-linejoin="round"/>
<path d="M19.5 32.1676C21.0603 32.1676 22.3252 30.9027 22.3252 29.3424C22.3252 27.7821 21.0603 26.5172 19.5 26.5172C17.9397 26.5172 16.6748 27.7821 16.6748 29.3424C16.6748 30.9027 17.9397 32.1676 19.5 32.1676Z" stroke="#FF8562" stroke-width="2" stroke-miterlimit="22.9256" stroke-linecap="round" stroke-linejoin="round"/>
<path d="M21.5024 27.4893L27.183 21.8087" stroke="#FF8562" stroke-width="2" stroke-miterlimit="22.9256" stroke-linecap="round" stroke-linejoin="round"/>
<path d="M19.5 14.9737C27.4356 14.9737 33.8687 21.4068 33.8687 29.3424" stroke="#FF8562" stroke-width="2" stroke-miterlimit="22.9256" stroke-linecap="round" stroke-linejoin="round"/>
</svg>
