<svg width="30" height="30" viewBox="0 0 30 30" fill="none" xmlns="http://www.w3.org/2000/svg">
<rect x="6" y="10" width="19" height="16" rx="2" stroke="#B4BDC7" stroke-width="2"/>
<path d="M7 17H25" stroke="#B4BDC7" stroke-width="2"/>
<path d="M15.1979 11.3479C15.5742 10.9437 15.5515 10.3109 15.1472 9.93464C14.7429 9.55838 14.1101 9.5811 13.7339 9.98539L15.1979 11.3479ZM10.6316 13.3187C10.2554 13.723 10.2781 14.3558 10.6824 14.732C11.0866 15.1083 11.7194 15.0856 12.0957 14.6813L10.6316 13.3187ZM17.2661 9.98539C16.8899 9.5811 16.2571 9.55838 15.8528 9.93464C15.4485 10.3109 15.4258 10.9437 15.8021 11.3479L17.2661 9.98539ZM18.9043 14.6813C19.2806 15.0856 19.9134 15.1083 20.3176 14.732C20.7219 14.3558 20.7446 13.723 20.3684 13.3187L18.9043 14.6813ZM14.5 6.77778C14.5 7.50072 14.498 7.94388 14.4576 8.25477C14.4184 8.55579 14.3664 8.51447 14.444 8.44816C14.4884 8.41021 14.452 8.47697 14.0344 8.51663C13.6359 8.55447 13.0834 8.55556 12.25 8.55556V10.5556C13.0416 10.5556 13.7078 10.5566 14.2234 10.5077C14.7199 10.4605 15.2928 10.3537 15.7435 9.96851C16.2273 9.55497 16.3784 8.99282 16.4409 8.5126C16.502 8.04223 16.5 7.44373 16.5 6.77778H14.5ZM12.25 8.55556C10.8543 8.55556 10 7.61811 10 6.77778H8C8 9.0057 10.0558 10.5556 12.25 10.5556V8.55556ZM10 6.77778C10 5.93745 10.8543 5 12.25 5V3C10.0558 3 8 4.54986 8 6.77778H10ZM12.25 5C13.6457 5 14.5 5.93745 14.5 6.77778H16.5C16.5 4.54986 14.4442 3 12.25 3V5ZM14.5 6.77778C14.5 7.44373 14.498 8.04223 14.5591 8.5126C14.6216 8.99282 14.7727 9.55497 15.2565 9.96851C15.7072 10.3537 16.2801 10.4605 16.7766 10.5077C17.2922 10.5566 17.9584 10.5556 18.75 10.5556V8.55556C17.9166 8.55556 17.3641 8.55447 16.9656 8.51663C16.548 8.47697 16.5116 8.41021 16.556 8.44816C16.6336 8.51447 16.5816 8.55579 16.5424 8.25477C16.502 7.94388 16.5 7.50072 16.5 6.77778H14.5ZM18.75 10.5556C20.9442 10.5556 23 9.0057 23 6.77778H21C21 7.61811 20.1457 8.55556 18.75 8.55556V10.5556ZM23 6.77778C23 4.54986 20.9442 3 18.75 3V5C20.1457 5 21 5.93745 21 6.77778H23ZM18.75 3C16.5558 3 14.5 4.54986 14.5 6.77778H16.5C16.5 5.93745 17.3543 5 18.75 5V3ZM13.7339 9.98539L10.6316 13.3187L12.0957 14.6813L15.1979 11.3479L13.7339 9.98539ZM15.8021 11.3479L18.9043 14.6813L20.3684 13.3187L17.2661 9.98539L15.8021 11.3479Z" fill="#B4BDC7"/>
</svg>
