<svg width="30" height="30" viewBox="0 0 30 30" fill="none" xmlns="http://www.w3.org/2000/svg">
<path d="M15 25C20.5228 25 25 20.5228 25 15C25 9.47712 20.5228 5 15 5C9.47715 5 5 9.47712 5 15C5 20.5228 9.47715 25 15 25Z" stroke="#FF8562" stroke-width="2" stroke-miterlimit="22.9256" stroke-linecap="round" stroke-linejoin="round"/>
<path d="M14.9999 17.414C17.1899 17.414 18.9653 15.6386 18.9653 13.4486C18.9653 11.2586 17.1899 9.48331 14.9999 9.48331C12.8099 9.48331 11.0346 11.2586 11.0346 13.4486C11.0346 15.6386 12.8099 17.414 14.9999 17.414Z" stroke="#FF8562" stroke-width="2" stroke-miterlimit="22.9256" stroke-linecap="round" stroke-linejoin="round"/>
<path d="M9.50616 23.3905C9.76551 20.5924 12.1372 18.383 15 18.383C17.8628 18.383 20.2345 20.5924 20.4938 23.3905" stroke="#FF8562" stroke-width="2" stroke-miterlimit="22.9256" stroke-linecap="round" stroke-linejoin="round"/>
</svg>
